<mxfile host="Electron" modified="2023-04-24T06:33:26.857Z" agent="Mozilla/5.0 (Windows NT 10.0; Win64; x64) AppleWebKit/537.36 (KHTML, like Gecko) draw.io/21.1.2 Chrome/106.0.5249.199 Electron/21.4.3 Safari/537.36" etag="R1tqmcMnjmC-tPPUtlD3" version="21.1.2" type="device" pages="3">
  <diagram name="分流服务" id="yO_mzn8Q3GnJgCmKlfW9">
    <mxGraphModel dx="2686" dy="983" grid="0" gridSize="10" guides="1" tooltips="1" connect="1" arrows="1" fold="1" page="0" pageScale="1" pageWidth="1654" pageHeight="1169" math="0" shadow="0">
      <root>
        <mxCell id="0" />
        <mxCell id="1" parent="0" />
        <mxCell id="lekGafEjOMrYbdMkTUzj-3" value="" style="edgeStyle=none;curved=1;rounded=0;sketch=1;hachureGap=4;jiggle=2;curveFitting=1;orthogonalLoop=1;jettySize=auto;html=1;fontFamily=Architects Daughter;fontSource=https%3A%2F%2Ffonts.googleapis.com%2Fcss%3Ffamily%3DArchitects%2BDaughter;fontSize=16;endArrow=open;startSize=14;endSize=14;sourcePerimeterSpacing=8;targetPerimeterSpacing=8;" parent="1" source="lekGafEjOMrYbdMkTUzj-1" target="lekGafEjOMrYbdMkTUzj-2" edge="1">
          <mxGeometry relative="1" as="geometry" />
        </mxCell>
        <mxCell id="lekGafEjOMrYbdMkTUzj-1" value="开始" style="strokeWidth=2;html=1;shape=mxgraph.flowchart.start_2;whiteSpace=wrap;sketch=1;hachureGap=4;jiggle=2;curveFitting=1;fontFamily=Architects Daughter;fontSource=https%3A%2F%2Ffonts.googleapis.com%2Fcss%3Ffamily%3DArchitects%2BDaughter;fontSize=20;" parent="1" vertex="1">
          <mxGeometry x="-629" y="53" width="71" height="71" as="geometry" />
        </mxCell>
        <mxCell id="lekGafEjOMrYbdMkTUzj-5" value="" style="edgeStyle=none;curved=1;rounded=0;sketch=1;hachureGap=4;jiggle=2;curveFitting=1;orthogonalLoop=1;jettySize=auto;html=1;fontFamily=Architects Daughter;fontSource=https%3A%2F%2Ffonts.googleapis.com%2Fcss%3Ffamily%3DArchitects%2BDaughter;fontSize=16;endArrow=open;startSize=14;endSize=14;sourcePerimeterSpacing=8;targetPerimeterSpacing=8;" parent="1" source="lekGafEjOMrYbdMkTUzj-2" target="lekGafEjOMrYbdMkTUzj-4" edge="1">
          <mxGeometry relative="1" as="geometry" />
        </mxCell>
        <mxCell id="lekGafEjOMrYbdMkTUzj-2" value="访问电商系统" style="whiteSpace=wrap;html=1;fontSize=20;fontFamily=Architects Daughter;strokeWidth=2;sketch=1;hachureGap=4;jiggle=2;curveFitting=1;fontSource=https%3A%2F%2Ffonts.googleapis.com%2Fcss%3Ffamily%3DArchitects%2BDaughter;" parent="1" vertex="1">
          <mxGeometry x="-514" y="56" width="78" height="60" as="geometry" />
        </mxCell>
        <mxCell id="8JfNh4Bz2hVASyh6Gh4I-4" value="是" style="edgeStyle=none;curved=1;rounded=0;sketch=1;hachureGap=4;jiggle=2;curveFitting=1;orthogonalLoop=1;jettySize=auto;html=1;fontFamily=Architects Daughter;fontSource=https%3A%2F%2Ffonts.googleapis.com%2Fcss%3Ffamily%3DArchitects%2BDaughter;fontSize=16;endArrow=open;startSize=14;endSize=14;sourcePerimeterSpacing=8;targetPerimeterSpacing=8;" parent="1" source="lekGafEjOMrYbdMkTUzj-4" target="8JfNh4Bz2hVASyh6Gh4I-3" edge="1">
          <mxGeometry relative="1" as="geometry" />
        </mxCell>
        <mxCell id="8JfNh4Bz2hVASyh6Gh4I-9" value="否" style="edgeStyle=none;curved=1;rounded=0;sketch=1;hachureGap=4;jiggle=2;curveFitting=1;orthogonalLoop=1;jettySize=auto;html=1;fontFamily=Architects Daughter;fontSource=https%3A%2F%2Ffonts.googleapis.com%2Fcss%3Ffamily%3DArchitects%2BDaughter;fontSize=16;endArrow=open;startSize=14;endSize=14;sourcePerimeterSpacing=8;targetPerimeterSpacing=8;" parent="1" source="lekGafEjOMrYbdMkTUzj-4" target="8JfNh4Bz2hVASyh6Gh4I-7" edge="1">
          <mxGeometry x="-0.304" y="12" relative="1" as="geometry">
            <mxPoint as="offset" />
          </mxGeometry>
        </mxCell>
        <mxCell id="lekGafEjOMrYbdMkTUzj-4" value="api + param&lt;br&gt;匹配" style="rhombus;whiteSpace=wrap;html=1;fontSize=20;fontFamily=Architects Daughter;strokeWidth=2;sketch=1;hachureGap=4;jiggle=2;curveFitting=1;fontSource=https%3A%2F%2Ffonts.googleapis.com%2Fcss%3Ffamily%3DArchitects%2BDaughter;" parent="1" vertex="1">
          <mxGeometry x="-388" y="48.5" width="148" height="89" as="geometry" />
        </mxCell>
        <mxCell id="8JfNh4Bz2hVASyh6Gh4I-3" value="结束" style="strokeWidth=2;html=1;shape=mxgraph.flowchart.terminator;whiteSpace=wrap;sketch=1;hachureGap=4;jiggle=2;curveFitting=1;fontFamily=Architects Daughter;fontSource=https%3A%2F%2Ffonts.googleapis.com%2Fcss%3Ffamily%3DArchitects%2BDaughter;fontSize=20;" parent="1" vertex="1">
          <mxGeometry x="-368" y="223" width="100" height="60" as="geometry" />
        </mxCell>
        <mxCell id="8JfNh4Bz2hVASyh6Gh4I-5" value="结束" style="strokeWidth=2;html=1;shape=mxgraph.flowchart.terminator;whiteSpace=wrap;sketch=1;hachureGap=4;jiggle=2;curveFitting=1;fontFamily=Architects Daughter;fontSource=https%3A%2F%2Ffonts.googleapis.com%2Fcss%3Ffamily%3DArchitects%2BDaughter;fontSize=20;" parent="1" vertex="1">
          <mxGeometry x="-171" y="225" width="100" height="60" as="geometry" />
        </mxCell>
        <mxCell id="8JfNh4Bz2hVASyh6Gh4I-6" value="结束" style="strokeWidth=2;html=1;shape=mxgraph.flowchart.terminator;whiteSpace=wrap;sketch=1;hachureGap=4;jiggle=2;curveFitting=1;fontFamily=Architects Daughter;fontSource=https%3A%2F%2Ffonts.googleapis.com%2Fcss%3Ffamily%3DArchitects%2BDaughter;fontSize=20;" parent="1" vertex="1">
          <mxGeometry x="42" y="234" width="100" height="60" as="geometry" />
        </mxCell>
        <mxCell id="8JfNh4Bz2hVASyh6Gh4I-10" value="否" style="edgeStyle=none;curved=1;rounded=0;sketch=1;hachureGap=4;jiggle=2;curveFitting=1;orthogonalLoop=1;jettySize=auto;html=1;fontFamily=Architects Daughter;fontSource=https%3A%2F%2Ffonts.googleapis.com%2Fcss%3Ffamily%3DArchitects%2BDaughter;fontSize=16;endArrow=open;startSize=14;endSize=14;sourcePerimeterSpacing=8;targetPerimeterSpacing=8;" parent="1" source="8JfNh4Bz2hVASyh6Gh4I-7" target="8JfNh4Bz2hVASyh6Gh4I-8" edge="1">
          <mxGeometry x="-0.4348" y="14" relative="1" as="geometry">
            <mxPoint y="1" as="offset" />
          </mxGeometry>
        </mxCell>
        <mxCell id="8JfNh4Bz2hVASyh6Gh4I-7" value="header匹配" style="rhombus;whiteSpace=wrap;html=1;fontSize=20;fontFamily=Architects Daughter;strokeWidth=2;sketch=1;hachureGap=4;jiggle=2;curveFitting=1;fontSource=https%3A%2F%2Ffonts.googleapis.com%2Fcss%3Ffamily%3DArchitects%2BDaughter;" parent="1" vertex="1">
          <mxGeometry x="-192" y="44" width="148" height="89" as="geometry" />
        </mxCell>
        <mxCell id="8JfNh4Bz2hVASyh6Gh4I-8" value="用户匹配" style="rhombus;whiteSpace=wrap;html=1;fontSize=20;fontFamily=Architects Daughter;strokeWidth=2;sketch=1;hachureGap=4;jiggle=2;curveFitting=1;fontSource=https%3A%2F%2Ffonts.googleapis.com%2Fcss%3Ffamily%3DArchitects%2BDaughter;" parent="1" vertex="1">
          <mxGeometry x="18" y="44" width="148" height="89" as="geometry" />
        </mxCell>
        <mxCell id="8JfNh4Bz2hVASyh6Gh4I-11" value="是" style="edgeStyle=none;curved=1;rounded=0;sketch=1;hachureGap=4;jiggle=2;curveFitting=1;orthogonalLoop=1;jettySize=auto;html=1;fontFamily=Architects Daughter;fontSource=https%3A%2F%2Ffonts.googleapis.com%2Fcss%3Ffamily%3DArchitects%2BDaughter;fontSize=16;endArrow=open;startSize=14;endSize=14;sourcePerimeterSpacing=8;targetPerimeterSpacing=8;" parent="1" source="8JfNh4Bz2hVASyh6Gh4I-7" target="8JfNh4Bz2hVASyh6Gh4I-5" edge="1">
          <mxGeometry relative="1" as="geometry">
            <mxPoint x="-164" y="220" as="sourcePoint" />
            <mxPoint x="-50" y="220" as="targetPoint" />
          </mxGeometry>
        </mxCell>
        <mxCell id="8JfNh4Bz2hVASyh6Gh4I-12" value="是" style="edgeStyle=none;curved=1;rounded=0;sketch=1;hachureGap=4;jiggle=2;curveFitting=1;orthogonalLoop=1;jettySize=auto;html=1;fontFamily=Architects Daughter;fontSource=https%3A%2F%2Ffonts.googleapis.com%2Fcss%3Ffamily%3DArchitects%2BDaughter;fontSize=16;endArrow=open;startSize=14;endSize=14;sourcePerimeterSpacing=8;targetPerimeterSpacing=8;" parent="1" source="8JfNh4Bz2hVASyh6Gh4I-8" target="8JfNh4Bz2hVASyh6Gh4I-6" edge="1">
          <mxGeometry relative="1" as="geometry">
            <mxPoint x="-152" y="197" as="sourcePoint" />
            <mxPoint x="-38" y="197" as="targetPoint" />
          </mxGeometry>
        </mxCell>
        <mxCell id="8JfNh4Bz2hVASyh6Gh4I-13" value="结束" style="strokeWidth=2;html=1;shape=mxgraph.flowchart.terminator;whiteSpace=wrap;sketch=1;hachureGap=4;jiggle=2;curveFitting=1;fontFamily=Architects Daughter;fontSource=https%3A%2F%2Ffonts.googleapis.com%2Fcss%3Ffamily%3DArchitects%2BDaughter;fontSize=20;" parent="1" vertex="1">
          <mxGeometry x="241" y="234.5" width="100" height="60" as="geometry" />
        </mxCell>
        <mxCell id="8JfNh4Bz2hVASyh6Gh4I-14" value="区域匹配" style="rhombus;whiteSpace=wrap;html=1;fontSize=20;fontFamily=Architects Daughter;strokeWidth=2;sketch=1;hachureGap=4;jiggle=2;curveFitting=1;fontSource=https%3A%2F%2Ffonts.googleapis.com%2Fcss%3Ffamily%3DArchitects%2BDaughter;" parent="1" vertex="1">
          <mxGeometry x="214" y="48.5" width="148" height="89" as="geometry" />
        </mxCell>
        <mxCell id="8JfNh4Bz2hVASyh6Gh4I-15" value="是" style="edgeStyle=none;curved=1;rounded=0;sketch=1;hachureGap=4;jiggle=2;curveFitting=1;orthogonalLoop=1;jettySize=auto;html=1;fontFamily=Architects Daughter;fontSource=https%3A%2F%2Ffonts.googleapis.com%2Fcss%3Ffamily%3DArchitects%2BDaughter;fontSize=16;endArrow=open;startSize=14;endSize=14;sourcePerimeterSpacing=8;targetPerimeterSpacing=8;" parent="1" source="8JfNh4Bz2hVASyh6Gh4I-14" target="8JfNh4Bz2hVASyh6Gh4I-13" edge="1">
          <mxGeometry relative="1" as="geometry">
            <mxPoint x="-166" y="345.5" as="sourcePoint" />
            <mxPoint x="-52" y="345.5" as="targetPoint" />
          </mxGeometry>
        </mxCell>
        <mxCell id="8JfNh4Bz2hVASyh6Gh4I-16" value="否" style="edgeStyle=none;curved=1;rounded=0;sketch=1;hachureGap=4;jiggle=2;curveFitting=1;orthogonalLoop=1;jettySize=auto;html=1;fontFamily=Architects Daughter;fontSource=https%3A%2F%2Ffonts.googleapis.com%2Fcss%3Ffamily%3DArchitects%2BDaughter;fontSize=16;endArrow=open;startSize=14;endSize=14;sourcePerimeterSpacing=8;targetPerimeterSpacing=8;" parent="1" source="8JfNh4Bz2hVASyh6Gh4I-8" target="8JfNh4Bz2hVASyh6Gh4I-14" edge="1">
          <mxGeometry x="-0.4079" y="18" relative="1" as="geometry">
            <mxPoint x="-246" y="423" as="sourcePoint" />
            <mxPoint x="-245" y="470" as="targetPoint" />
            <mxPoint as="offset" />
          </mxGeometry>
        </mxCell>
        <mxCell id="8JfNh4Bz2hVASyh6Gh4I-17" value="结束" style="strokeWidth=2;html=1;shape=mxgraph.flowchart.terminator;whiteSpace=wrap;sketch=1;hachureGap=4;jiggle=2;curveFitting=1;fontFamily=Architects Daughter;fontSource=https%3A%2F%2Ffonts.googleapis.com%2Fcss%3Ffamily%3DArchitects%2BDaughter;fontSize=20;" parent="1" vertex="1">
          <mxGeometry x="439" y="234.5" width="100" height="60" as="geometry" />
        </mxCell>
        <mxCell id="8JfNh4Bz2hVASyh6Gh4I-22" style="edgeStyle=none;curved=1;rounded=0;sketch=1;hachureGap=4;jiggle=2;curveFitting=1;orthogonalLoop=1;jettySize=auto;html=1;fontFamily=Architects Daughter;fontSource=https%3A%2F%2Ffonts.googleapis.com%2Fcss%3Ffamily%3DArchitects%2BDaughter;fontSize=16;endArrow=open;startSize=14;endSize=14;sourcePerimeterSpacing=8;targetPerimeterSpacing=8;" parent="1" source="8JfNh4Bz2hVASyh6Gh4I-18" edge="1">
          <mxGeometry relative="1" as="geometry">
            <mxPoint x="542.4716279722243" y="95.69804306656374" as="targetPoint" />
          </mxGeometry>
        </mxCell>
        <mxCell id="8JfNh4Bz2hVASyh6Gh4I-24" value="否" style="edgeStyle=none;curved=1;rounded=0;sketch=1;hachureGap=4;jiggle=2;curveFitting=1;orthogonalLoop=1;jettySize=auto;html=1;fontFamily=Architects Daughter;fontSource=https%3A%2F%2Ffonts.googleapis.com%2Fcss%3Ffamily%3DArchitects%2BDaughter;fontSize=16;endArrow=open;startSize=14;endSize=14;sourcePerimeterSpacing=8;targetPerimeterSpacing=8;" parent="1" source="8JfNh4Bz2hVASyh6Gh4I-18" target="8JfNh4Bz2hVASyh6Gh4I-23" edge="1">
          <mxGeometry x="-0.3458" y="24" relative="1" as="geometry">
            <mxPoint as="offset" />
          </mxGeometry>
        </mxCell>
        <mxCell id="8JfNh4Bz2hVASyh6Gh4I-18" value="权重策略&lt;br&gt;匹配" style="rhombus;whiteSpace=wrap;html=1;fontSize=20;fontFamily=Architects Daughter;strokeWidth=2;sketch=1;hachureGap=4;jiggle=2;curveFitting=1;fontSource=https%3A%2F%2Ffonts.googleapis.com%2Fcss%3Ffamily%3DArchitects%2BDaughter;" parent="1" vertex="1">
          <mxGeometry x="415" y="51" width="148" height="89" as="geometry" />
        </mxCell>
        <mxCell id="8JfNh4Bz2hVASyh6Gh4I-19" value="是" style="edgeStyle=none;curved=1;rounded=0;sketch=1;hachureGap=4;jiggle=2;curveFitting=1;orthogonalLoop=1;jettySize=auto;html=1;fontFamily=Architects Daughter;fontSource=https%3A%2F%2Ffonts.googleapis.com%2Fcss%3Ffamily%3DArchitects%2BDaughter;fontSize=16;endArrow=open;startSize=14;endSize=14;sourcePerimeterSpacing=8;targetPerimeterSpacing=8;" parent="1" source="8JfNh4Bz2hVASyh6Gh4I-18" target="8JfNh4Bz2hVASyh6Gh4I-17" edge="1">
          <mxGeometry relative="1" as="geometry">
            <mxPoint x="-170.5" y="484.5" as="sourcePoint" />
            <mxPoint x="-56.5" y="484.5" as="targetPoint" />
          </mxGeometry>
        </mxCell>
        <mxCell id="8JfNh4Bz2hVASyh6Gh4I-20" value="否" style="edgeStyle=none;curved=1;rounded=0;sketch=1;hachureGap=4;jiggle=2;curveFitting=1;orthogonalLoop=1;jettySize=auto;html=1;fontFamily=Architects Daughter;fontSource=https%3A%2F%2Ffonts.googleapis.com%2Fcss%3Ffamily%3DArchitects%2BDaughter;fontSize=16;endArrow=open;startSize=14;endSize=14;sourcePerimeterSpacing=8;targetPerimeterSpacing=8;" parent="1" source="8JfNh4Bz2hVASyh6Gh4I-14" target="8JfNh4Bz2hVASyh6Gh4I-18" edge="1">
          <mxGeometry x="-0.4851" y="19" relative="1" as="geometry">
            <mxPoint x="-260" y="423.5" as="sourcePoint" />
            <mxPoint x="-259" y="470.5" as="targetPoint" />
            <mxPoint as="offset" />
          </mxGeometry>
        </mxCell>
        <mxCell id="8JfNh4Bz2hVASyh6Gh4I-27" style="edgeStyle=none;curved=1;rounded=0;sketch=1;hachureGap=4;jiggle=2;curveFitting=1;orthogonalLoop=1;jettySize=auto;html=1;fontFamily=Architects Daughter;fontSource=https%3A%2F%2Ffonts.googleapis.com%2Fcss%3Ffamily%3DArchitects%2BDaughter;fontSize=16;endArrow=open;startSize=14;endSize=14;sourcePerimeterSpacing=8;targetPerimeterSpacing=8;" parent="1" source="8JfNh4Bz2hVASyh6Gh4I-23" target="8JfNh4Bz2hVASyh6Gh4I-25" edge="1">
          <mxGeometry relative="1" as="geometry" />
        </mxCell>
        <mxCell id="8JfNh4Bz2hVASyh6Gh4I-23" value="默认环境" style="whiteSpace=wrap;html=1;fontSize=20;fontFamily=Architects Daughter;strokeWidth=2;sketch=1;hachureGap=4;jiggle=2;curveFitting=1;fontSource=https%3A%2F%2Ffonts.googleapis.com%2Fcss%3Ffamily%3DArchitects%2BDaughter;" parent="1" vertex="1">
          <mxGeometry x="644" y="63" width="91" height="60" as="geometry" />
        </mxCell>
        <mxCell id="8JfNh4Bz2hVASyh6Gh4I-25" value="结束" style="strokeWidth=2;html=1;shape=mxgraph.flowchart.terminator;whiteSpace=wrap;sketch=1;hachureGap=4;jiggle=2;curveFitting=1;fontFamily=Architects Daughter;fontSource=https%3A%2F%2Ffonts.googleapis.com%2Fcss%3Ffamily%3DArchitects%2BDaughter;fontSize=20;" parent="1" vertex="1">
          <mxGeometry x="637" y="231" width="100" height="60" as="geometry" />
        </mxCell>
      </root>
    </mxGraphModel>
  </diagram>
  <diagram id="0-0XsCdMhbwOSA_9x2Ey" name="webagent">
    <mxGraphModel dx="2686" dy="1383" grid="0" gridSize="10" guides="1" tooltips="1" connect="1" arrows="1" fold="1" page="0" pageScale="1" pageWidth="1654" pageHeight="1169" math="0" shadow="0">
      <root>
        <mxCell id="0" />
        <mxCell id="1" parent="0" />
        <mxCell id="DIAuytwX01BClcT5WVdi-6" value="" style="rounded=0;whiteSpace=wrap;html=1;sketch=1;hachureGap=4;jiggle=2;curveFitting=1;fontFamily=Courier New;fontSize=20;" parent="1" vertex="1">
          <mxGeometry x="108" y="221" width="500" height="339" as="geometry" />
        </mxCell>
        <mxCell id="DIAuytwX01BClcT5WVdi-1" value="" style="rounded=0;whiteSpace=wrap;html=1;sketch=1;hachureGap=4;jiggle=2;curveFitting=1;fontFamily=Courier New;fontSize=20;" parent="1" vertex="1">
          <mxGeometry x="-124" y="-187" width="457" height="331" as="geometry" />
        </mxCell>
        <mxCell id="DIAuytwX01BClcT5WVdi-2" value="Master" style="text;html=1;align=center;verticalAlign=middle;resizable=0;points=[];autosize=1;strokeColor=none;fillColor=none;fontSize=20;fontFamily=Courier New;" parent="1" vertex="1">
          <mxGeometry x="-126" y="-184" width="90" height="36" as="geometry" />
        </mxCell>
        <mxCell id="DIAuytwX01BClcT5WVdi-3" value="etcd" style="ellipse;whiteSpace=wrap;html=1;sketch=1;hachureGap=4;jiggle=2;curveFitting=1;fontFamily=Courier New;fontSize=20;" parent="1" vertex="1">
          <mxGeometry x="-93" y="23" width="114" height="75" as="geometry" />
        </mxCell>
        <mxCell id="OXKurCeZkolH3mFvzNeB-1" style="edgeStyle=none;curved=1;rounded=0;sketch=1;hachureGap=4;jiggle=2;curveFitting=1;orthogonalLoop=1;jettySize=auto;html=1;fontFamily=Courier New;fontSize=16;endArrow=open;startSize=14;endSize=14;sourcePerimeterSpacing=8;targetPerimeterSpacing=8;" parent="1" source="DIAuytwX01BClcT5WVdi-4" target="DIAuytwX01BClcT5WVdi-41" edge="1">
          <mxGeometry relative="1" as="geometry" />
        </mxCell>
        <mxCell id="OXKurCeZkolH3mFvzNeB-2" value="3.1 创建dns记录" style="edgeLabel;html=1;align=center;verticalAlign=middle;resizable=0;points=[];fontSize=20;fontFamily=Courier New;" parent="OXKurCeZkolH3mFvzNeB-1" vertex="1" connectable="0">
          <mxGeometry x="0.2797" relative="1" as="geometry">
            <mxPoint x="14" y="-30" as="offset" />
          </mxGeometry>
        </mxCell>
        <mxCell id="OXKurCeZkolH3mFvzNeB-3" style="edgeStyle=none;curved=1;rounded=0;sketch=1;hachureGap=4;jiggle=2;curveFitting=1;orthogonalLoop=1;jettySize=auto;html=1;fontFamily=Courier New;fontSize=16;endArrow=open;startSize=14;endSize=14;sourcePerimeterSpacing=8;targetPerimeterSpacing=8;" parent="1" source="DIAuytwX01BClcT5WVdi-4" target="DIAuytwX01BClcT5WVdi-3" edge="1">
          <mxGeometry relative="1" as="geometry" />
        </mxCell>
        <mxCell id="OXKurCeZkolH3mFvzNeB-4" value="3.2 存储dns记录" style="edgeLabel;html=1;align=center;verticalAlign=middle;resizable=0;points=[];fontSize=20;fontFamily=Courier New;" parent="OXKurCeZkolH3mFvzNeB-3" vertex="1" connectable="0">
          <mxGeometry x="-0.3928" y="-1" relative="1" as="geometry">
            <mxPoint x="-1" y="10" as="offset" />
          </mxGeometry>
        </mxCell>
        <mxCell id="DIAuytwX01BClcT5WVdi-4" value="coredns" style="rounded=0;whiteSpace=wrap;html=1;sketch=1;hachureGap=4;jiggle=2;curveFitting=1;fontFamily=Courier New;fontSize=20;" parent="1" vertex="1">
          <mxGeometry x="-88" y="-118" width="112" height="59" as="geometry" />
        </mxCell>
        <mxCell id="DIAuytwX01BClcT5WVdi-39" value="" style="edgeStyle=none;curved=1;rounded=0;sketch=1;hachureGap=4;jiggle=2;curveFitting=1;orthogonalLoop=1;jettySize=auto;html=1;fontFamily=Courier New;fontSize=16;endArrow=open;startSize=14;endSize=14;sourcePerimeterSpacing=8;targetPerimeterSpacing=8;" parent="1" source="DIAuytwX01BClcT5WVdi-5" target="DIAuytwX01BClcT5WVdi-4" edge="1">
          <mxGeometry x="-0.6263" y="-21" relative="1" as="geometry">
            <mxPoint y="1" as="offset" />
          </mxGeometry>
        </mxCell>
        <mxCell id="DIAuytwX01BClcT5WVdi-40" value="2. dns监听" style="edgeLabel;html=1;align=center;verticalAlign=middle;resizable=0;points=[];fontSize=20;fontFamily=Courier New;" parent="DIAuytwX01BClcT5WVdi-39" vertex="1" connectable="0">
          <mxGeometry x="-0.4481" y="-1" relative="1" as="geometry">
            <mxPoint x="9" y="-26" as="offset" />
          </mxGeometry>
        </mxCell>
        <mxCell id="OXKurCeZkolH3mFvzNeB-5" style="edgeStyle=none;curved=1;rounded=0;sketch=1;hachureGap=4;jiggle=2;curveFitting=1;orthogonalLoop=1;jettySize=auto;html=1;fontFamily=Courier New;fontSize=16;endArrow=open;startSize=14;endSize=14;sourcePerimeterSpacing=8;targetPerimeterSpacing=8;" parent="1" source="DIAuytwX01BClcT5WVdi-5" target="DIAuytwX01BClcT5WVdi-8" edge="1">
          <mxGeometry relative="1" as="geometry" />
        </mxCell>
        <mxCell id="OXKurCeZkolH3mFvzNeB-6" value="4. kube-proxy同步数据" style="edgeLabel;html=1;align=center;verticalAlign=middle;resizable=0;points=[];fontSize=20;fontFamily=Courier New;" parent="OXKurCeZkolH3mFvzNeB-5" vertex="1" connectable="0">
          <mxGeometry x="0.1939" y="2" relative="1" as="geometry">
            <mxPoint as="offset" />
          </mxGeometry>
        </mxCell>
        <mxCell id="DIAuytwX01BClcT5WVdi-5" value="kube-apiserver" style="rounded=0;whiteSpace=wrap;html=1;sketch=1;hachureGap=4;jiggle=2;curveFitting=1;fontFamily=Courier New;fontSize=20;" parent="1" vertex="1">
          <mxGeometry x="151" y="-53" width="154" height="59" as="geometry" />
        </mxCell>
        <mxCell id="DIAuytwX01BClcT5WVdi-7" value="Node" style="text;html=1;align=center;verticalAlign=middle;resizable=0;points=[];autosize=1;strokeColor=none;fillColor=none;fontSize=20;fontFamily=Courier New;" parent="1" vertex="1">
          <mxGeometry x="120" y="227" width="66" height="36" as="geometry" />
        </mxCell>
        <mxCell id="OXKurCeZkolH3mFvzNeB-8" style="edgeStyle=none;curved=1;rounded=0;sketch=1;hachureGap=4;jiggle=2;curveFitting=1;orthogonalLoop=1;jettySize=auto;html=1;fontFamily=Courier New;fontSize=16;endArrow=open;startSize=14;endSize=14;sourcePerimeterSpacing=8;targetPerimeterSpacing=8;" parent="1" source="DIAuytwX01BClcT5WVdi-8" target="OXKurCeZkolH3mFvzNeB-7" edge="1">
          <mxGeometry relative="1" as="geometry" />
        </mxCell>
        <mxCell id="OXKurCeZkolH3mFvzNeB-9" value="5. 创建iptables/ipvs记录" style="edgeLabel;html=1;align=center;verticalAlign=middle;resizable=0;points=[];fontSize=20;fontFamily=Courier New;" parent="OXKurCeZkolH3mFvzNeB-8" vertex="1" connectable="0">
          <mxGeometry x="0.2479" relative="1" as="geometry">
            <mxPoint x="96" y="-29" as="offset" />
          </mxGeometry>
        </mxCell>
        <mxCell id="DIAuytwX01BClcT5WVdi-8" value="kube-proxy" style="rounded=0;whiteSpace=wrap;html=1;sketch=1;hachureGap=4;jiggle=2;curveFitting=1;fontFamily=Courier New;fontSize=20;" parent="1" vertex="1">
          <mxGeometry x="422" y="292" width="146" height="59" as="geometry" />
        </mxCell>
        <mxCell id="DIAuytwX01BClcT5WVdi-14" value="" style="edgeStyle=none;curved=1;rounded=0;sketch=1;hachureGap=4;jiggle=2;curveFitting=1;orthogonalLoop=1;jettySize=auto;html=1;fontFamily=Courier New;fontSize=16;endArrow=open;startSize=14;endSize=14;sourcePerimeterSpacing=8;targetPerimeterSpacing=8;" parent="1" source="DIAuytwX01BClcT5WVdi-9" target="DIAuytwX01BClcT5WVdi-13" edge="1">
          <mxGeometry relative="1" as="geometry" />
        </mxCell>
        <mxCell id="DIAuytwX01BClcT5WVdi-9" value="service" style="rhombus;whiteSpace=wrap;html=1;sketch=1;hachureGap=4;jiggle=2;curveFitting=1;fontFamily=Courier New;fontSize=20;" parent="1" vertex="1">
          <mxGeometry x="190" y="231" width="131" height="80" as="geometry" />
        </mxCell>
        <mxCell id="DIAuytwX01BClcT5WVdi-22" style="edgeStyle=none;curved=1;rounded=0;sketch=1;hachureGap=4;jiggle=2;curveFitting=1;orthogonalLoop=1;jettySize=auto;html=1;fontFamily=Courier New;fontSize=16;endArrow=open;startSize=14;endSize=14;sourcePerimeterSpacing=8;targetPerimeterSpacing=8;" parent="1" source="DIAuytwX01BClcT5WVdi-13" target="DIAuytwX01BClcT5WVdi-19" edge="1">
          <mxGeometry relative="1" as="geometry" />
        </mxCell>
        <mxCell id="DIAuytwX01BClcT5WVdi-23" style="edgeStyle=none;curved=1;rounded=0;sketch=1;hachureGap=4;jiggle=2;curveFitting=1;orthogonalLoop=1;jettySize=auto;html=1;fontFamily=Courier New;fontSize=16;endArrow=open;startSize=14;endSize=14;sourcePerimeterSpacing=8;targetPerimeterSpacing=8;" parent="1" source="DIAuytwX01BClcT5WVdi-13" target="DIAuytwX01BClcT5WVdi-20" edge="1">
          <mxGeometry relative="1" as="geometry" />
        </mxCell>
        <mxCell id="DIAuytwX01BClcT5WVdi-24" style="edgeStyle=none;curved=1;rounded=0;sketch=1;hachureGap=4;jiggle=2;curveFitting=1;orthogonalLoop=1;jettySize=auto;html=1;fontFamily=Courier New;fontSize=16;endArrow=open;startSize=14;endSize=14;sourcePerimeterSpacing=8;targetPerimeterSpacing=8;" parent="1" source="DIAuytwX01BClcT5WVdi-13" target="DIAuytwX01BClcT5WVdi-21" edge="1">
          <mxGeometry relative="1" as="geometry" />
        </mxCell>
        <mxCell id="DIAuytwX01BClcT5WVdi-13" value="endpoint" style="whiteSpace=wrap;html=1;fontSize=20;fontFamily=Courier New;sketch=1;hachureGap=4;jiggle=2;curveFitting=1;" parent="1" vertex="1">
          <mxGeometry x="201" y="353.5" width="120" height="60" as="geometry" />
        </mxCell>
        <mxCell id="DIAuytwX01BClcT5WVdi-19" value="pod1" style="ellipse;whiteSpace=wrap;html=1;aspect=fixed;sketch=1;hachureGap=4;jiggle=2;curveFitting=1;fontFamily=Courier New;fontSize=20;" parent="1" vertex="1">
          <mxGeometry x="142" y="483" width="59" height="59" as="geometry" />
        </mxCell>
        <mxCell id="DIAuytwX01BClcT5WVdi-20" value="pod2" style="ellipse;whiteSpace=wrap;html=1;aspect=fixed;sketch=1;hachureGap=4;jiggle=2;curveFitting=1;fontFamily=Courier New;fontSize=20;" parent="1" vertex="1">
          <mxGeometry x="223.5" y="483" width="59" height="59" as="geometry" />
        </mxCell>
        <mxCell id="DIAuytwX01BClcT5WVdi-21" value="pod3" style="ellipse;whiteSpace=wrap;html=1;aspect=fixed;sketch=1;hachureGap=4;jiggle=2;curveFitting=1;fontFamily=Courier New;fontSize=20;" parent="1" vertex="1">
          <mxGeometry x="304.5" y="486" width="59" height="59" as="geometry" />
        </mxCell>
        <mxCell id="DIAuytwX01BClcT5WVdi-25" value="" style="rounded=0;whiteSpace=wrap;html=1;sketch=1;hachureGap=4;jiggle=2;curveFitting=1;fontFamily=Courier New;fontSize=20;" parent="1" vertex="1">
          <mxGeometry x="-453" y="223" width="500" height="339" as="geometry" />
        </mxCell>
        <mxCell id="DIAuytwX01BClcT5WVdi-26" value="Node" style="text;html=1;align=center;verticalAlign=middle;resizable=0;points=[];autosize=1;strokeColor=none;fillColor=none;fontSize=20;fontFamily=Courier New;" parent="1" vertex="1">
          <mxGeometry x="-441" y="229" width="66" height="36" as="geometry" />
        </mxCell>
        <mxCell id="DIAuytwX01BClcT5WVdi-28" value="" style="edgeStyle=none;curved=1;rounded=0;sketch=1;hachureGap=4;jiggle=2;curveFitting=1;orthogonalLoop=1;jettySize=auto;html=1;fontFamily=Courier New;fontSize=16;endArrow=open;startSize=14;endSize=14;sourcePerimeterSpacing=8;targetPerimeterSpacing=8;" parent="1" source="DIAuytwX01BClcT5WVdi-29" target="DIAuytwX01BClcT5WVdi-33" edge="1">
          <mxGeometry relative="1" as="geometry" />
        </mxCell>
        <mxCell id="DIAuytwX01BClcT5WVdi-37" style="edgeStyle=none;curved=1;rounded=0;sketch=1;hachureGap=4;jiggle=2;curveFitting=1;orthogonalLoop=1;jettySize=auto;html=1;fontFamily=Courier New;fontSize=16;endArrow=open;startSize=14;endSize=14;sourcePerimeterSpacing=8;targetPerimeterSpacing=8;" parent="1" source="DIAuytwX01BClcT5WVdi-29" target="DIAuytwX01BClcT5WVdi-5" edge="1">
          <mxGeometry relative="1" as="geometry" />
        </mxCell>
        <mxCell id="DIAuytwX01BClcT5WVdi-38" value="1. service 启动起来，会主动注册" style="edgeLabel;html=1;align=center;verticalAlign=middle;resizable=0;points=[];fontSize=20;fontFamily=Courier New;" parent="DIAuytwX01BClcT5WVdi-37" vertex="1" connectable="0">
          <mxGeometry x="-0.3766" y="-2" relative="1" as="geometry">
            <mxPoint x="-44" y="16" as="offset" />
          </mxGeometry>
        </mxCell>
        <mxCell id="DIAuytwX01BClcT5WVdi-29" value="service" style="rhombus;whiteSpace=wrap;html=1;sketch=1;hachureGap=4;jiggle=2;curveFitting=1;fontFamily=Courier New;fontSize=20;" parent="1" vertex="1">
          <mxGeometry x="-167.5" y="240" width="131" height="80" as="geometry" />
        </mxCell>
        <mxCell id="DIAuytwX01BClcT5WVdi-30" style="edgeStyle=none;curved=1;rounded=0;sketch=1;hachureGap=4;jiggle=2;curveFitting=1;orthogonalLoop=1;jettySize=auto;html=1;fontFamily=Courier New;fontSize=16;endArrow=open;startSize=14;endSize=14;sourcePerimeterSpacing=8;targetPerimeterSpacing=8;" parent="1" source="DIAuytwX01BClcT5WVdi-33" target="DIAuytwX01BClcT5WVdi-34" edge="1">
          <mxGeometry relative="1" as="geometry" />
        </mxCell>
        <mxCell id="DIAuytwX01BClcT5WVdi-31" style="edgeStyle=none;curved=1;rounded=0;sketch=1;hachureGap=4;jiggle=2;curveFitting=1;orthogonalLoop=1;jettySize=auto;html=1;fontFamily=Courier New;fontSize=16;endArrow=open;startSize=14;endSize=14;sourcePerimeterSpacing=8;targetPerimeterSpacing=8;" parent="1" source="DIAuytwX01BClcT5WVdi-33" target="DIAuytwX01BClcT5WVdi-35" edge="1">
          <mxGeometry relative="1" as="geometry" />
        </mxCell>
        <mxCell id="DIAuytwX01BClcT5WVdi-32" style="edgeStyle=none;curved=1;rounded=0;sketch=1;hachureGap=4;jiggle=2;curveFitting=1;orthogonalLoop=1;jettySize=auto;html=1;fontFamily=Courier New;fontSize=16;endArrow=open;startSize=14;endSize=14;sourcePerimeterSpacing=8;targetPerimeterSpacing=8;" parent="1" source="DIAuytwX01BClcT5WVdi-33" target="DIAuytwX01BClcT5WVdi-36" edge="1">
          <mxGeometry relative="1" as="geometry" />
        </mxCell>
        <mxCell id="DIAuytwX01BClcT5WVdi-33" value="endpoint" style="whiteSpace=wrap;html=1;fontSize=20;fontFamily=Courier New;sketch=1;hachureGap=4;jiggle=2;curveFitting=1;" parent="1" vertex="1">
          <mxGeometry x="-156.5" y="362.5" width="120" height="60" as="geometry" />
        </mxCell>
        <mxCell id="DIAuytwX01BClcT5WVdi-34" value="pod1" style="ellipse;whiteSpace=wrap;html=1;aspect=fixed;sketch=1;hachureGap=4;jiggle=2;curveFitting=1;fontFamily=Courier New;fontSize=20;" parent="1" vertex="1">
          <mxGeometry x="-215.5" y="492" width="59" height="59" as="geometry" />
        </mxCell>
        <mxCell id="DIAuytwX01BClcT5WVdi-35" value="pod2" style="ellipse;whiteSpace=wrap;html=1;aspect=fixed;sketch=1;hachureGap=4;jiggle=2;curveFitting=1;fontFamily=Courier New;fontSize=20;" parent="1" vertex="1">
          <mxGeometry x="-134" y="492" width="59" height="59" as="geometry" />
        </mxCell>
        <mxCell id="DIAuytwX01BClcT5WVdi-36" value="pod3" style="ellipse;whiteSpace=wrap;html=1;aspect=fixed;sketch=1;hachureGap=4;jiggle=2;curveFitting=1;fontFamily=Courier New;fontSize=20;" parent="1" vertex="1">
          <mxGeometry x="-53" y="495" width="59" height="59" as="geometry" />
        </mxCell>
        <mxCell id="DIAuytwX01BClcT5WVdi-41" value="&lt;p style=&quot;&quot;&gt;&lt;span style=&quot;background-color: initial;&quot;&gt;&lt;b&gt;dns record&lt;/b&gt;&lt;/span&gt;&lt;/p&gt;&lt;p style=&quot;&quot;&gt;&lt;span style=&quot;background-color: initial;&quot;&gt;service_name: ip&lt;br&gt;&lt;/span&gt;&lt;span style=&quot;background-color: initial;&quot;&gt;service_name: ip&lt;/span&gt;&lt;/p&gt;&lt;p style=&quot;&quot;&gt;&lt;span style=&quot;background-color: initial;&quot;&gt;&lt;br&gt;&lt;/span&gt;&lt;/p&gt;" style="shape=note;whiteSpace=wrap;html=1;backgroundOutline=1;fontColor=#000000;darkOpacity=0.05;fillColor=#FFF9B2;strokeColor=none;fillStyle=solid;direction=west;gradientDirection=north;gradientColor=#FFF2A1;shadow=1;size=20;pointerEvents=1;sketch=1;hachureGap=4;jiggle=2;curveFitting=1;fontFamily=Courier New;fontSize=20;align=left;" parent="1" vertex="1">
          <mxGeometry x="-475" y="-19.5" width="211" height="160" as="geometry" />
        </mxCell>
        <mxCell id="OXKurCeZkolH3mFvzNeB-7" value="&lt;p style=&quot;&quot;&gt;&lt;span style=&quot;background-color: initial;&quot;&gt;&lt;b&gt;iptables&lt;/b&gt;&lt;/span&gt;&lt;/p&gt;&lt;p style=&quot;&quot;&gt;&lt;span style=&quot;background-color: initial;&quot;&gt;clusterip+endpoint&lt;/span&gt;&lt;br&gt;&lt;/p&gt;&lt;p style=&quot;&quot;&gt;&lt;span style=&quot;background-color: initial;&quot;&gt;&lt;br&gt;&lt;/span&gt;&lt;/p&gt;" style="shape=note;whiteSpace=wrap;html=1;backgroundOutline=1;fontColor=#000000;darkOpacity=0.05;fillColor=#FFF9B2;strokeColor=none;fillStyle=solid;direction=west;gradientDirection=north;gradientColor=#FFF2A1;shadow=1;size=20;pointerEvents=1;sketch=1;hachureGap=4;jiggle=2;curveFitting=1;fontFamily=Courier New;fontSize=20;align=left;" parent="1" vertex="1">
          <mxGeometry x="674" y="394" width="238" height="160" as="geometry" />
        </mxCell>
      </root>
    </mxGraphModel>
  </diagram>
  <diagram id="JXDCQtcYPMf-l7akwBtH" name="分布式ID生成">
    <mxGraphModel dx="2686" dy="1383" grid="0" gridSize="10" guides="1" tooltips="1" connect="1" arrows="1" fold="1" page="0" pageScale="1" pageWidth="1654" pageHeight="1169" math="0" shadow="0">
      <root>
        <mxCell id="0" />
        <mxCell id="1" parent="0" />
        <mxCell id="cldlQpvWUUki2WVoNJH1-125" style="edgeStyle=none;curved=1;rounded=0;sketch=1;hachureGap=4;jiggle=2;curveFitting=1;orthogonalLoop=1;jettySize=auto;html=1;fontFamily=Architects Daughter;fontSource=https%3A%2F%2Ffonts.googleapis.com%2Fcss%3Ffamily%3DArchitects%2BDaughter;fontSize=16;endArrow=open;startSize=14;endSize=14;sourcePerimeterSpacing=8;targetPerimeterSpacing=8;" edge="1" parent="1" source="cldlQpvWUUki2WVoNJH1-119" target="cldlQpvWUUki2WVoNJH1-130">
          <mxGeometry relative="1" as="geometry">
            <mxPoint x="-29.17352185089976" y="-37" as="targetPoint" />
          </mxGeometry>
        </mxCell>
        <mxCell id="cldlQpvWUUki2WVoNJH1-126" value="缓存ID" style="edgeLabel;html=1;align=center;verticalAlign=middle;resizable=0;points=[];fontSize=20;fontFamily=Architects Daughter;" vertex="1" connectable="0" parent="cldlQpvWUUki2WVoNJH1-125">
          <mxGeometry x="-0.3121" relative="1" as="geometry">
            <mxPoint x="3" y="-10" as="offset" />
          </mxGeometry>
        </mxCell>
        <mxCell id="cldlQpvWUUki2WVoNJH1-128" style="edgeStyle=none;curved=1;rounded=0;sketch=1;hachureGap=4;jiggle=2;curveFitting=1;orthogonalLoop=1;jettySize=auto;html=1;fontFamily=Architects Daughter;fontSource=https%3A%2F%2Ffonts.googleapis.com%2Fcss%3Ffamily%3DArchitects%2BDaughter;fontSize=16;endArrow=open;startSize=14;endSize=14;sourcePerimeterSpacing=8;targetPerimeterSpacing=8;" edge="1" parent="1" source="cldlQpvWUUki2WVoNJH1-119" target="cldlQpvWUUki2WVoNJH1-127">
          <mxGeometry relative="1" as="geometry" />
        </mxCell>
        <mxCell id="cldlQpvWUUki2WVoNJH1-129" value="ID元数据&lt;br&gt;&lt;font style=&quot;font-size: 12px;&quot;&gt;RedisKey&lt;br&gt;自增位长&lt;br&gt;随机位长&lt;br&gt;&lt;/font&gt;" style="edgeLabel;html=1;align=center;verticalAlign=middle;resizable=0;points=[];fontSize=20;fontFamily=Architects Daughter;" vertex="1" connectable="0" parent="cldlQpvWUUki2WVoNJH1-128">
          <mxGeometry x="-0.2053" y="-1" relative="1" as="geometry">
            <mxPoint x="10" y="-1" as="offset" />
          </mxGeometry>
        </mxCell>
        <mxCell id="cldlQpvWUUki2WVoNJH1-119" value="" style="rounded=0;whiteSpace=wrap;html=1;sketch=1;hachureGap=4;jiggle=2;curveFitting=1;fontFamily=Architects Daughter;fontSource=https%3A%2F%2Ffonts.googleapis.com%2Fcss%3Ffamily%3DArchitects%2BDaughter;fontSize=20;" vertex="1" parent="1">
          <mxGeometry x="-263.5" y="47" width="257" height="125" as="geometry" />
        </mxCell>
        <mxCell id="cldlQpvWUUki2WVoNJH1-79" value="" style="rounded=0;whiteSpace=wrap;html=1;sketch=1;hachureGap=4;jiggle=2;curveFitting=1;fontFamily=Architects Daughter;fontSource=https%3A%2F%2Ffonts.googleapis.com%2Fcss%3Ffamily%3DArchitects%2BDaughter;fontSize=20;" vertex="1" parent="1">
          <mxGeometry x="-264" y="274" width="538" height="80" as="geometry" />
        </mxCell>
        <mxCell id="cldlQpvWUUki2WVoNJH1-80" value="randomnumber:storeId" style="text;strokeColor=none;fillColor=none;html=1;align=center;verticalAlign=middle;whiteSpace=wrap;rounded=0;fontSize=20;fontFamily=Architects Daughter;" vertex="1" parent="1">
          <mxGeometry x="-281" y="240" width="283" height="30" as="geometry" />
        </mxCell>
        <mxCell id="cldlQpvWUUki2WVoNJH1-81" value="&lt;b&gt;&lt;font color=&quot;#ff0000&quot;&gt;1&lt;/font&gt;&lt;/b&gt;856" style="rounded=1;whiteSpace=wrap;html=1;sketch=1;hachureGap=4;jiggle=2;curveFitting=1;fontFamily=Architects Daughter;fontSource=https%3A%2F%2Ffonts.googleapis.com%2Fcss%3Ffamily%3DArchitects%2BDaughter;fontSize=20;" vertex="1" parent="1">
          <mxGeometry x="-247.5" y="290" width="51" height="48" as="geometry" />
        </mxCell>
        <mxCell id="cldlQpvWUUki2WVoNJH1-82" value="&lt;b&gt;&lt;font color=&quot;#ff0000&quot;&gt;1&lt;/font&gt;&lt;/b&gt;025" style="rounded=1;whiteSpace=wrap;html=1;sketch=1;hachureGap=4;jiggle=2;curveFitting=1;fontFamily=Architects Daughter;fontSource=https%3A%2F%2Ffonts.googleapis.com%2Fcss%3Ffamily%3DArchitects%2BDaughter;fontSize=20;" vertex="1" parent="1">
          <mxGeometry x="-185" y="290" width="51" height="48" as="geometry" />
        </mxCell>
        <mxCell id="cldlQpvWUUki2WVoNJH1-83" value="&lt;b&gt;&lt;font color=&quot;#ff0000&quot;&gt;1&lt;/font&gt;&lt;/b&gt;741" style="rounded=1;whiteSpace=wrap;html=1;sketch=1;hachureGap=4;jiggle=2;curveFitting=1;fontFamily=Architects Daughter;fontSource=https%3A%2F%2Ffonts.googleapis.com%2Fcss%3Ffamily%3DArchitects%2BDaughter;fontSize=20;" vertex="1" parent="1">
          <mxGeometry x="-122" y="290" width="51" height="48" as="geometry" />
        </mxCell>
        <mxCell id="cldlQpvWUUki2WVoNJH1-84" value="&lt;b&gt;&lt;font color=&quot;#ff0000&quot;&gt;1&lt;/font&gt;&lt;/b&gt;053" style="rounded=1;whiteSpace=wrap;html=1;sketch=1;hachureGap=4;jiggle=2;curveFitting=1;fontFamily=Architects Daughter;fontSource=https%3A%2F%2Ffonts.googleapis.com%2Fcss%3Ffamily%3DArchitects%2BDaughter;fontSize=20;" vertex="1" parent="1">
          <mxGeometry x="-59" y="290" width="51" height="48" as="geometry" />
        </mxCell>
        <mxCell id="cldlQpvWUUki2WVoNJH1-85" value="&lt;b&gt;&lt;font color=&quot;#ff0000&quot;&gt;1&lt;/font&gt;&lt;/b&gt;904" style="rounded=1;whiteSpace=wrap;html=1;sketch=1;hachureGap=4;jiggle=2;curveFitting=1;fontFamily=Architects Daughter;fontSource=https%3A%2F%2Ffonts.googleapis.com%2Fcss%3Ffamily%3DArchitects%2BDaughter;fontSize=20;" vertex="1" parent="1">
          <mxGeometry x="4" y="290" width="51" height="48" as="geometry" />
        </mxCell>
        <mxCell id="cldlQpvWUUki2WVoNJH1-86" value="&lt;b&gt;&lt;font color=&quot;#ff0000&quot;&gt;1&lt;/font&gt;&lt;/b&gt;999" style="rounded=1;whiteSpace=wrap;html=1;sketch=1;hachureGap=4;jiggle=2;curveFitting=1;fontFamily=Architects Daughter;fontSource=https%3A%2F%2Ffonts.googleapis.com%2Fcss%3Ffamily%3DArchitects%2BDaughter;fontSize=20;" vertex="1" parent="1">
          <mxGeometry x="67" y="290" width="51" height="48" as="geometry" />
        </mxCell>
        <mxCell id="cldlQpvWUUki2WVoNJH1-88" value="&lt;b&gt;&lt;font color=&quot;#ff0000&quot;&gt;1&lt;/font&gt;&lt;/b&gt;253" style="rounded=1;whiteSpace=wrap;html=1;sketch=1;hachureGap=4;jiggle=2;curveFitting=1;fontFamily=Architects Daughter;fontSource=https%3A%2F%2Ffonts.googleapis.com%2Fcss%3Ffamily%3DArchitects%2BDaughter;fontSize=20;" vertex="1" parent="1">
          <mxGeometry x="204" y="290" width="51" height="48" as="geometry" />
        </mxCell>
        <mxCell id="cldlQpvWUUki2WVoNJH1-89" value="......" style="text;strokeColor=none;fillColor=none;html=1;align=center;verticalAlign=middle;whiteSpace=wrap;rounded=0;fontSize=20;fontFamily=Architects Daughter;" vertex="1" parent="1">
          <mxGeometry x="131" y="299" width="60" height="30" as="geometry" />
        </mxCell>
        <mxCell id="cldlQpvWUUki2WVoNJH1-90" value="" style="shape=curlyBracket;whiteSpace=wrap;html=1;rounded=1;flipH=1;labelPosition=right;verticalLabelPosition=middle;align=left;verticalAlign=middle;sketch=1;hachureGap=4;jiggle=2;curveFitting=1;fontFamily=Architects Daughter;fontSource=https%3A%2F%2Ffonts.googleapis.com%2Fcss%3Ffamily%3DArchitects%2BDaughter;fontSize=20;direction=north;" vertex="1" parent="1">
          <mxGeometry x="-226" y="360" width="451" height="43" as="geometry" />
        </mxCell>
        <mxCell id="cldlQpvWUUki2WVoNJH1-92" style="edgeStyle=none;curved=1;rounded=0;sketch=1;hachureGap=4;jiggle=2;curveFitting=1;orthogonalLoop=1;jettySize=auto;html=1;fontFamily=Architects Daughter;fontSource=https%3A%2F%2Ffonts.googleapis.com%2Fcss%3Ffamily%3DArchitects%2BDaughter;fontSize=16;endArrow=open;startSize=14;endSize=14;sourcePerimeterSpacing=8;targetPerimeterSpacing=8;" edge="1" parent="1" source="cldlQpvWUUki2WVoNJH1-91" target="cldlQpvWUUki2WVoNJH1-79">
          <mxGeometry relative="1" as="geometry" />
        </mxCell>
        <mxCell id="cldlQpvWUUki2WVoNJH1-93" value="randomnumber" style="edgeLabel;html=1;align=center;verticalAlign=middle;resizable=0;points=[];fontSize=20;fontFamily=Architects Daughter;" vertex="1" connectable="0" parent="cldlQpvWUUki2WVoNJH1-92">
          <mxGeometry x="-0.2397" y="2" relative="1" as="geometry">
            <mxPoint as="offset" />
          </mxGeometry>
        </mxCell>
        <mxCell id="cldlQpvWUUki2WVoNJH1-91" value="客户端" style="shape=umlActor;verticalLabelPosition=bottom;verticalAlign=top;html=1;outlineConnect=0;sketch=1;hachureGap=4;jiggle=2;curveFitting=1;fontFamily=Architects Daughter;fontSource=https%3A%2F%2Ffonts.googleapis.com%2Fcss%3Ffamily%3DArchitects%2BDaughter;fontSize=20;" vertex="1" parent="1">
          <mxGeometry x="-611" y="286" width="30" height="60" as="geometry" />
        </mxCell>
        <mxCell id="cldlQpvWUUki2WVoNJH1-94" value="key=storeId&lt;br&gt;randomLength=4" style="text;html=1;align=center;verticalAlign=middle;resizable=0;points=[];autosize=1;strokeColor=none;fillColor=none;fontSize=20;fontFamily=Architects Daughter;" vertex="1" parent="1">
          <mxGeometry x="-682" y="374" width="173" height="60" as="geometry" />
        </mxCell>
        <mxCell id="cldlQpvWUUki2WVoNJH1-96" value="randomnumber:storeId" style="text;strokeColor=none;fillColor=none;html=1;align=center;verticalAlign=middle;whiteSpace=wrap;rounded=0;fontSize=20;fontFamily=Architects Daughter;" vertex="1" parent="1">
          <mxGeometry x="-280.5" y="-159" width="283" height="30" as="geometry" />
        </mxCell>
        <mxCell id="cldlQpvWUUki2WVoNJH1-107" value="" style="rounded=1;whiteSpace=wrap;html=1;sketch=1;hachureGap=4;jiggle=2;curveFitting=1;fontFamily=Architects Daughter;fontSource=https%3A%2F%2Ffonts.googleapis.com%2Fcss%3Ffamily%3DArchitects%2BDaughter;fontSize=20;" vertex="1" parent="1">
          <mxGeometry x="-158.75" y="124" width="32" height="35" as="geometry" />
        </mxCell>
        <mxCell id="cldlQpvWUUki2WVoNJH1-108" value="" style="rounded=1;whiteSpace=wrap;html=1;sketch=1;hachureGap=4;jiggle=2;curveFitting=1;fontFamily=Architects Daughter;fontSource=https%3A%2F%2Ffonts.googleapis.com%2Fcss%3Ffamily%3DArchitects%2BDaughter;fontSize=20;" vertex="1" parent="1">
          <mxGeometry x="-122.75" y="124" width="32" height="35" as="geometry" />
        </mxCell>
        <mxCell id="cldlQpvWUUki2WVoNJH1-109" value="" style="rounded=1;whiteSpace=wrap;html=1;sketch=1;hachureGap=4;jiggle=2;curveFitting=1;fontFamily=Architects Daughter;fontSource=https%3A%2F%2Ffonts.googleapis.com%2Fcss%3Ffamily%3DArchitects%2BDaughter;fontSize=20;" vertex="1" parent="1">
          <mxGeometry x="-86.75" y="124" width="32" height="35" as="geometry" />
        </mxCell>
        <mxCell id="cldlQpvWUUki2WVoNJH1-110" value="" style="rounded=1;whiteSpace=wrap;html=1;sketch=1;hachureGap=4;jiggle=2;curveFitting=1;fontFamily=Architects Daughter;fontSource=https%3A%2F%2Ffonts.googleapis.com%2Fcss%3Ffamily%3DArchitects%2BDaughter;fontSize=20;" vertex="1" parent="1">
          <mxGeometry x="-47.75" y="124" width="32" height="35" as="geometry" />
        </mxCell>
        <mxCell id="cldlQpvWUUki2WVoNJH1-112" style="edgeStyle=none;curved=1;rounded=0;sketch=1;hachureGap=4;jiggle=2;curveFitting=1;orthogonalLoop=1;jettySize=auto;html=1;entryX=0.5;entryY=0;entryDx=0;entryDy=0;fontFamily=Architects Daughter;fontSource=https%3A%2F%2Ffonts.googleapis.com%2Fcss%3Ffamily%3DArchitects%2BDaughter;fontSize=16;endArrow=open;startSize=14;endSize=14;sourcePerimeterSpacing=8;targetPerimeterSpacing=8;" edge="1" parent="1" source="cldlQpvWUUki2WVoNJH1-111" target="cldlQpvWUUki2WVoNJH1-107">
          <mxGeometry relative="1" as="geometry" />
        </mxCell>
        <mxCell id="cldlQpvWUUki2WVoNJH1-111" value="自增位" style="text;strokeColor=none;fillColor=none;html=1;align=center;verticalAlign=middle;whiteSpace=wrap;rounded=0;fontSize=20;fontFamily=Architects Daughter;" vertex="1" parent="1">
          <mxGeometry x="-172.25" y="61" width="65" height="30" as="geometry" />
        </mxCell>
        <mxCell id="cldlQpvWUUki2WVoNJH1-114" style="edgeStyle=none;curved=1;rounded=0;sketch=1;hachureGap=4;jiggle=2;curveFitting=1;orthogonalLoop=1;jettySize=auto;html=1;entryX=0.5;entryY=0;entryDx=0;entryDy=0;fontFamily=Architects Daughter;fontSource=https%3A%2F%2Ffonts.googleapis.com%2Fcss%3Ffamily%3DArchitects%2BDaughter;fontSize=16;endArrow=open;startSize=14;endSize=14;sourcePerimeterSpacing=8;targetPerimeterSpacing=8;" edge="1" parent="1" source="cldlQpvWUUki2WVoNJH1-113" target="cldlQpvWUUki2WVoNJH1-108">
          <mxGeometry relative="1" as="geometry" />
        </mxCell>
        <mxCell id="cldlQpvWUUki2WVoNJH1-115" style="edgeStyle=none;curved=1;rounded=0;sketch=1;hachureGap=4;jiggle=2;curveFitting=1;orthogonalLoop=1;jettySize=auto;html=1;entryX=0.5;entryY=0;entryDx=0;entryDy=0;fontFamily=Architects Daughter;fontSource=https%3A%2F%2Ffonts.googleapis.com%2Fcss%3Ffamily%3DArchitects%2BDaughter;fontSize=16;endArrow=open;startSize=14;endSize=14;sourcePerimeterSpacing=8;targetPerimeterSpacing=8;" edge="1" parent="1" source="cldlQpvWUUki2WVoNJH1-113" target="cldlQpvWUUki2WVoNJH1-109">
          <mxGeometry relative="1" as="geometry" />
        </mxCell>
        <mxCell id="cldlQpvWUUki2WVoNJH1-116" style="edgeStyle=none;curved=1;rounded=0;sketch=1;hachureGap=4;jiggle=2;curveFitting=1;orthogonalLoop=1;jettySize=auto;html=1;entryX=0.5;entryY=0;entryDx=0;entryDy=0;fontFamily=Architects Daughter;fontSource=https%3A%2F%2Ffonts.googleapis.com%2Fcss%3Ffamily%3DArchitects%2BDaughter;fontSize=16;endArrow=open;startSize=14;endSize=14;sourcePerimeterSpacing=8;targetPerimeterSpacing=8;" edge="1" parent="1" source="cldlQpvWUUki2WVoNJH1-113" target="cldlQpvWUUki2WVoNJH1-110">
          <mxGeometry relative="1" as="geometry" />
        </mxCell>
        <mxCell id="cldlQpvWUUki2WVoNJH1-113" value="随机位" style="text;strokeColor=none;fillColor=none;html=1;align=center;verticalAlign=middle;whiteSpace=wrap;rounded=0;fontSize=20;fontFamily=Architects Daughter;" vertex="1" parent="1">
          <mxGeometry x="-99.75" y="61" width="65" height="30" as="geometry" />
        </mxCell>
        <mxCell id="cldlQpvWUUki2WVoNJH1-117" value="10^3个" style="text;strokeColor=none;fillColor=none;html=1;align=center;verticalAlign=middle;whiteSpace=wrap;rounded=0;fontSize=20;fontFamily=Architects Daughter;" vertex="1" parent="1">
          <mxGeometry x="-25" y="411" width="60" height="30" as="geometry" />
        </mxCell>
        <mxCell id="cldlQpvWUUki2WVoNJH1-118" value="&lt;font color=&quot;#ff0000&quot;&gt;红色部分：自增位&lt;/font&gt;&lt;br style=&quot;font-size: 16px;&quot;&gt;黑色部分：随机位&lt;br style=&quot;font-size: 16px;&quot;&gt;存储了1000个值，值：0~999" style="shape=note;whiteSpace=wrap;html=1;backgroundOutline=1;fontColor=#000000;darkOpacity=0.05;fillColor=#FFF9B2;strokeColor=none;fillStyle=solid;direction=west;gradientDirection=north;gradientColor=#FFF2A1;shadow=1;size=20;pointerEvents=1;sketch=1;hachureGap=4;jiggle=2;curveFitting=1;fontFamily=Architects Daughter;fontSource=https%3A%2F%2Ffonts.googleapis.com%2Fcss%3Ffamily%3DArchitects%2BDaughter;fontSize=16;align=left;" vertex="1" parent="1">
          <mxGeometry x="307" y="-132" width="216" height="93" as="geometry" />
        </mxCell>
        <mxCell id="cldlQpvWUUki2WVoNJH1-122" style="edgeStyle=none;curved=1;rounded=0;sketch=1;hachureGap=4;jiggle=2;curveFitting=1;orthogonalLoop=1;jettySize=auto;html=1;fontFamily=Architects Daughter;fontSource=https%3A%2F%2Ffonts.googleapis.com%2Fcss%3Ffamily%3DArchitects%2BDaughter;fontSize=16;endArrow=open;startSize=14;endSize=14;sourcePerimeterSpacing=8;targetPerimeterSpacing=8;" edge="1" parent="1" source="cldlQpvWUUki2WVoNJH1-120" target="cldlQpvWUUki2WVoNJH1-119">
          <mxGeometry relative="1" as="geometry" />
        </mxCell>
        <mxCell id="cldlQpvWUUki2WVoNJH1-124" value="randomnumber" style="edgeLabel;html=1;align=center;verticalAlign=middle;resizable=0;points=[];fontSize=20;fontFamily=Architects Daughter;" vertex="1" connectable="0" parent="cldlQpvWUUki2WVoNJH1-122">
          <mxGeometry x="-0.286" y="-3" relative="1" as="geometry">
            <mxPoint x="9" y="-3" as="offset" />
          </mxGeometry>
        </mxCell>
        <mxCell id="cldlQpvWUUki2WVoNJH1-120" value="客户端" style="shape=umlActor;verticalLabelPosition=bottom;verticalAlign=top;html=1;outlineConnect=0;sketch=1;hachureGap=4;jiggle=2;curveFitting=1;fontFamily=Architects Daughter;fontSource=https%3A%2F%2Ffonts.googleapis.com%2Fcss%3Ffamily%3DArchitects%2BDaughter;fontSize=20;" vertex="1" parent="1">
          <mxGeometry x="-614" y="-45" width="30" height="60" as="geometry" />
        </mxCell>
        <mxCell id="cldlQpvWUUki2WVoNJH1-121" value="key=storeId&lt;br&gt;randomLength=4" style="text;html=1;align=center;verticalAlign=middle;resizable=0;points=[];autosize=1;strokeColor=none;fillColor=none;fontSize=20;fontFamily=Architects Daughter;" vertex="1" parent="1">
          <mxGeometry x="-685" y="43" width="173" height="60" as="geometry" />
        </mxCell>
        <mxCell id="cldlQpvWUUki2WVoNJH1-123" value="ID生成" style="text;strokeColor=none;fillColor=none;html=1;align=center;verticalAlign=middle;whiteSpace=wrap;rounded=0;fontSize=20;fontFamily=Architects Daughter;" vertex="1" parent="1">
          <mxGeometry x="-268" y="49" width="83" height="30" as="geometry" />
        </mxCell>
        <mxCell id="cldlQpvWUUki2WVoNJH1-127" value="" style="shape=cylinder3;whiteSpace=wrap;html=1;boundedLbl=1;backgroundOutline=1;size=15;sketch=1;hachureGap=4;jiggle=2;curveFitting=1;fontFamily=Architects Daughter;fontSource=https%3A%2F%2Ffonts.googleapis.com%2Fcss%3Ffamily%3DArchitects%2BDaughter;fontSize=20;" vertex="1" parent="1">
          <mxGeometry x="197" y="70" width="60" height="80" as="geometry" />
        </mxCell>
        <mxCell id="cldlQpvWUUki2WVoNJH1-130" value="" style="rounded=0;whiteSpace=wrap;html=1;sketch=1;hachureGap=4;jiggle=2;curveFitting=1;fontFamily=Architects Daughter;fontSource=https%3A%2F%2Ffonts.googleapis.com%2Fcss%3Ffamily%3DArchitects%2BDaughter;fontSize=20;" vertex="1" parent="1">
          <mxGeometry x="-261.5" y="-122" width="538" height="80" as="geometry" />
        </mxCell>
        <mxCell id="cldlQpvWUUki2WVoNJH1-131" value="&lt;b&gt;&lt;font color=&quot;#ff0000&quot;&gt;1&lt;/font&gt;&lt;/b&gt;856" style="rounded=1;whiteSpace=wrap;html=1;sketch=1;hachureGap=4;jiggle=2;curveFitting=1;fontFamily=Architects Daughter;fontSource=https%3A%2F%2Ffonts.googleapis.com%2Fcss%3Ffamily%3DArchitects%2BDaughter;fontSize=20;" vertex="1" parent="1">
          <mxGeometry x="-245" y="-106" width="51" height="48" as="geometry" />
        </mxCell>
        <mxCell id="cldlQpvWUUki2WVoNJH1-132" value="&lt;b&gt;&lt;font color=&quot;#ff0000&quot;&gt;1&lt;/font&gt;&lt;/b&gt;025" style="rounded=1;whiteSpace=wrap;html=1;sketch=1;hachureGap=4;jiggle=2;curveFitting=1;fontFamily=Architects Daughter;fontSource=https%3A%2F%2Ffonts.googleapis.com%2Fcss%3Ffamily%3DArchitects%2BDaughter;fontSize=20;" vertex="1" parent="1">
          <mxGeometry x="-182.5" y="-106" width="51" height="48" as="geometry" />
        </mxCell>
        <mxCell id="cldlQpvWUUki2WVoNJH1-133" value="&lt;b&gt;&lt;font color=&quot;#ff0000&quot;&gt;1&lt;/font&gt;&lt;/b&gt;741" style="rounded=1;whiteSpace=wrap;html=1;sketch=1;hachureGap=4;jiggle=2;curveFitting=1;fontFamily=Architects Daughter;fontSource=https%3A%2F%2Ffonts.googleapis.com%2Fcss%3Ffamily%3DArchitects%2BDaughter;fontSize=20;" vertex="1" parent="1">
          <mxGeometry x="-119.5" y="-106" width="51" height="48" as="geometry" />
        </mxCell>
        <mxCell id="cldlQpvWUUki2WVoNJH1-134" value="&lt;b&gt;&lt;font color=&quot;#ff0000&quot;&gt;1&lt;/font&gt;&lt;/b&gt;053" style="rounded=1;whiteSpace=wrap;html=1;sketch=1;hachureGap=4;jiggle=2;curveFitting=1;fontFamily=Architects Daughter;fontSource=https%3A%2F%2Ffonts.googleapis.com%2Fcss%3Ffamily%3DArchitects%2BDaughter;fontSize=20;" vertex="1" parent="1">
          <mxGeometry x="-56.5" y="-106" width="51" height="48" as="geometry" />
        </mxCell>
        <mxCell id="cldlQpvWUUki2WVoNJH1-135" value="&lt;b&gt;&lt;font color=&quot;#ff0000&quot;&gt;1&lt;/font&gt;&lt;/b&gt;904" style="rounded=1;whiteSpace=wrap;html=1;sketch=1;hachureGap=4;jiggle=2;curveFitting=1;fontFamily=Architects Daughter;fontSource=https%3A%2F%2Ffonts.googleapis.com%2Fcss%3Ffamily%3DArchitects%2BDaughter;fontSize=20;" vertex="1" parent="1">
          <mxGeometry x="6.5" y="-106" width="51" height="48" as="geometry" />
        </mxCell>
        <mxCell id="cldlQpvWUUki2WVoNJH1-136" value="&lt;b&gt;&lt;font color=&quot;#ff0000&quot;&gt;1&lt;/font&gt;&lt;/b&gt;999" style="rounded=1;whiteSpace=wrap;html=1;sketch=1;hachureGap=4;jiggle=2;curveFitting=1;fontFamily=Architects Daughter;fontSource=https%3A%2F%2Ffonts.googleapis.com%2Fcss%3Ffamily%3DArchitects%2BDaughter;fontSize=20;" vertex="1" parent="1">
          <mxGeometry x="69.5" y="-106" width="51" height="48" as="geometry" />
        </mxCell>
        <mxCell id="cldlQpvWUUki2WVoNJH1-137" value="&lt;b&gt;&lt;font color=&quot;#ff0000&quot;&gt;1&lt;/font&gt;&lt;/b&gt;253" style="rounded=1;whiteSpace=wrap;html=1;sketch=1;hachureGap=4;jiggle=2;curveFitting=1;fontFamily=Architects Daughter;fontSource=https%3A%2F%2Ffonts.googleapis.com%2Fcss%3Ffamily%3DArchitects%2BDaughter;fontSize=20;" vertex="1" parent="1">
          <mxGeometry x="206.5" y="-106" width="51" height="48" as="geometry" />
        </mxCell>
        <mxCell id="cldlQpvWUUki2WVoNJH1-138" value="......" style="text;strokeColor=none;fillColor=none;html=1;align=center;verticalAlign=middle;whiteSpace=wrap;rounded=0;fontSize=20;fontFamily=Architects Daughter;" vertex="1" parent="1">
          <mxGeometry x="133.5" y="-97" width="60" height="30" as="geometry" />
        </mxCell>
      </root>
    </mxGraphModel>
  </diagram>
</mxfile>
